<?xml version="1.0" encoding="utf-8"?>
<!DOCTYPE svg PUBLIC "-//W3C//DTD SVG 1.1//EN" "http://www.w3.org/Graphics/SVG/1.1/DTD/svg11.dtd">
<svg version="1.1" xmlns="http://www.w3.org/2000/svg" xmlns:xlink="http://www.w3.org/1999/xlink" x="0px" y="0px" viewBox="0 0 256 256" enable-background="new 0 0 256 256" xml:space="preserve">
<g><g><path fill="#000000" d="M128,10C62.8,10,10,62.8,10,128c0,65.2,52.8,118,118,118c65.2,0,118-52.8,118-118C246,62.8,193.2,10,128,10z M128,240.7c-62.2,0-112.7-50.5-112.7-112.7C15.3,65.8,65.8,15.3,128,15.3c62.2,0,112.7,50.5,112.7,112.7C240.7,190.2,190.2,240.7,128,240.7z M160.4,128.3l-59.5,59.8l-4-4l55.5-55.8L96.9,72.6l4-4L160.4,128.3L160.4,128.3z"/></g></g>
</svg>